# xmcd
#
# Track frame offsets: 
#        150
#        17860
#        43857
#        61430
#        86366
#        100199
#        114606
#        162958
#
# Disc length: 2465 seconds
#
# Revision: 2
# Processed by: cddbd v1.5.2PL0 Copyright (c) Steve Scherf et al.
# Submitted via: ExactAudioCopyFreeDBPlugin 1.0
#
DISCID=62099f08
DTITLE=Bill Withers - Naked and Warm
DYEAR=1976
DGENRE=Soul
TTITLE0=Close to Me
TTITLE1=Naked and Warm (Heaven! Oh! Heaven!)
TTITLE2=Where You Are
TTITLE3=Dreams
TTITLE4=If I Didn't Mean You Well
TTITLE5=I'll Be with You
TTITLE6=City of the Angels
TTITLE7=My Imagination
EXTD=
EXTT0=
EXTT1=
EXTT2=
EXTT3=
EXTT4=
EXTT5=
EXTT6=
EXTT7=
PLAYORDER=
